<?xml version="1.0" encoding="utf-8"?>
<!-- Generator: Adobe Illustrator 15.1.0, SVG Export Plug-In . SVG Version: 6.00 Build 0)  -->
<!DOCTYPE svg PUBLIC "-//W3C//DTD SVG 1.1//EN" "http://www.w3.org/Graphics/SVG/1.1/DTD/svg11.dtd">
<svg version="1.1" id="Calque_1" xmlns="http://www.w3.org/2000/svg" xmlns:xlink="http://www.w3.org/1999/xlink" x="0px" y="0px"
	 width="400px" height="176px" viewBox="0 0 400 176" enable-background="new 0 0 400 176" xml:space="preserve">
<polygon fill="#00AEEF" points="51.438,0 51.438,19.801 68.607,29.725 68.645,29.744 51.438,39.606 51.438,59.409 102.911,29.725 
	51.441,0 "/>
<polygon fill="#1E1E1C" points="0,49.549 51.436,79.237 51.436,59.432 34.263,49.572 34.3,49.549 51.436,39.63 51.436,19.826 "/>
<polygon fill="#00AEEF" points="396.418,94.279 376.083,115.408 355.75,94.279 354.232,139.464 365.796,139.464 366.188,120.064 
	376.083,130.518 385.997,120.064 386.395,139.464 397.971,139.464 "/>
<path fill="#00AEEF" d="M328.87,94.148c-12.659,24.668-22.654,45.319-22.654,45.319h12.255l2.52-5.927h14.904l2.67,5.927h12.996
	C351.561,139.468,341.396,118.611,328.87,94.148 M324.234,125.751l4.054-9.244l4.278,9.244H324.234z"/>
<rect x="291.734" y="96.721" fill="#00AEEF" width="11.644" height="42.743"/>
<polygon fill="#00AEEF" points="266.598,118.868 256.236,96.721 243.521,96.721 266.208,142.035 288.861,96.721 276.445,96.721 
	266.525,118.824 "/>
<polygon fill="#1E1E1C" points="221.943,129.789 221.943,122.357 240.223,122.357 240.223,113.207 221.943,113.207 221.943,106.006 
	240.656,106.006 240.656,96.721 210.926,96.721 210.926,139.464 241.12,139.464 241.12,129.789 "/>
<polygon fill="#1E1E1C" points="185.872,118.868 175.516,96.721 162.797,96.721 185.485,142.035 208.174,96.721 195.719,96.721 
	185.837,118.824 "/>
<rect x="148.287" y="96.721" fill="#1E1E1C" width="11.682" height="42.743"/>
<polygon fill="#1E1E1C" points="109.197,105.813 120.739,105.813 120.739,139.468 132.333,139.468 132.333,105.813 143.547,105.813 
	143.547,96.723 109.197,96.723 "/>
<path fill="#1E1E1C" d="M96.145,130.75c-7.445-0.146-12.435-4.951-12.435-12.68c0-7.619,5.162-12.574,12.628-12.73
	c3.235-0.052,6.009,0.583,8.397,1.721V96.995c-2.543-0.888-5.937-1.435-10.166-1.298c-13.55,0.396-22.45,10.65-22.45,22.373
	c0,11.142,7.432,22.107,22.33,22.328c4.375,0.054,7.44-0.412,10.285-1.318v-10.042C102.286,130.127,99.385,130.796,96.145,130.75"/>
<path fill="#1E1E1C" d="M52.875,94.148c-12.698,24.668-22.69,45.319-22.69,45.319h12.291l2.479-5.927h14.906l2.67,5.927h12.995
	C75.526,139.468,65.363,118.611,52.875,94.148 M48.203,125.751l4.09-9.244l4.247,9.244H48.203z"/>
<path fill="#1E1E1C" d="M37.209,159.337h0.949l6.193,13.392h-1.083l-1.69-3.724h-7.845l-1.69,3.724h-1.025L37.209,159.337z
	 M41.16,168.111l-3.495-7.691l-3.514,7.691H41.16z"/>
<path fill="#1E1E1C" d="M46.949,163.041h0.93v1.805c0.646-1.14,1.729-2.031,3.495-2.031c2.451,0,3.875,1.672,3.875,3.988v5.926
	h-0.931v-5.756c0-1.994-1.121-3.305-3.077-3.305c-1.899,0-3.362,1.443-3.362,3.457v5.604h-0.93V163.041z"/>
<path fill="#1E1E1C" d="M57.791,169.917v-0.037c0-2.014,1.729-3.153,4.235-3.153c1.349,0,2.28,0.172,3.21,0.418v-0.418
	c0-1.957-1.197-2.963-3.191-2.963c-1.178,0-2.146,0.322-3.039,0.778l-0.342-0.817c1.064-0.492,2.109-0.834,3.438-0.834
	c1.312,0,2.355,0.359,3.058,1.063c0.646,0.646,0.988,1.539,0.988,2.736v6.039h-0.912v-1.613c-0.664,0.931-1.861,1.842-3.704,1.842
	C59.729,172.956,57.791,171.932,57.791,169.917z M65.256,169.102v-1.104c-0.817-0.208-1.9-0.438-3.287-0.438
	c-2.051,0-3.191,0.912-3.191,2.26v0.039c0,1.406,1.33,2.224,2.812,2.224C63.565,172.083,65.256,170.867,65.256,169.102z"/>
<path fill="#1E1E1C" d="M69.621,158.861h0.93v13.867h-0.93V158.861z"/>
<path fill="#1E1E1C" d="M73.475,175.407l0.322-0.817c0.514,0.247,0.932,0.36,1.653,0.36c1.007,0,1.671-0.589,2.394-2.279
	l-4.654-9.63h1.083l4.027,8.662l3.496-8.662h1.025l-4.198,10.029c-0.854,2.031-1.842,2.754-3.229,2.754
	C74.652,175.824,74.121,175.691,73.475,175.407z"/>
<path fill="#1E1E1C" d="M84.545,171.514l0.551-0.74c1.063,0.815,2.241,1.271,3.476,1.271c1.311,0,2.336-0.723,2.336-1.843v-0.038
	c0-1.141-1.215-1.559-2.564-1.938c-1.577-0.457-3.324-0.932-3.324-2.66v-0.037c0-1.559,1.311-2.678,3.191-2.678
	c1.159,0,2.469,0.416,3.438,1.063l-0.493,0.779c-0.893-0.59-1.957-0.971-2.982-0.971c-1.33,0-2.203,0.723-2.203,1.69v0.038
	c0,1.083,1.311,1.48,2.697,1.88c1.557,0.438,3.19,1.008,3.19,2.717v0.038c0,1.729-1.481,2.831-3.343,2.831
	C87.11,172.919,85.571,172.35,84.545,171.514z"/>
<path fill="#1E1E1C" d="M94.837,159.242h1.159v1.271h-1.159V159.242z M94.951,163.041h0.931v9.688h-0.931V163.041z"/>
<path fill="#1E1E1C" d="M99.546,163.041h0.93v1.805c0.646-1.14,1.729-2.031,3.495-2.031c2.451,0,3.875,1.672,3.875,3.988v5.926
	h-0.93v-5.756c0-1.994-1.121-3.305-3.078-3.305c-1.899,0-3.362,1.443-3.362,3.457v5.604h-0.93V163.041z"/>
<path fill="#1E1E1C" d="M110.996,174.322l0.551-0.758c1.159,0.893,2.488,1.367,3.914,1.367c2.222,0,3.798-1.272,3.798-3.762v-1.406
	c-0.835,1.197-2.127,2.242-4.045,2.242c-2.336,0-4.654-1.785-4.654-4.559v-0.039c0-2.792,2.317-4.596,4.654-4.596
	c1.938,0,3.248,1.024,4.045,2.164v-1.938h0.931v8.188c0,1.405-0.456,2.508-1.235,3.285c-0.835,0.836-2.089,1.293-3.514,1.293
	C113.827,175.807,112.326,175.313,110.996,174.322z M119.316,167.43v-0.039c0-2.24-1.995-3.685-4.008-3.685
	c-2.032,0-3.742,1.405-3.742,3.666v0.037c0,2.187,1.748,3.704,3.742,3.704C117.322,171.113,119.316,169.632,119.316,167.43z"/>
<path fill="#1E1E1C" d="M128.788,167.923v-0.038c0-3.152,2.375-5.07,4.71-5.07c1.938,0,3.191,1.102,3.989,2.315v-6.269h0.931v13.867
	h-0.931v-2.166c-0.835,1.271-2.07,2.394-3.989,2.394C131.162,172.956,128.788,171.076,128.788,167.923z M137.544,167.902v-0.036
	c0-2.488-1.938-4.16-3.951-4.16c-2.109,0-3.799,1.538-3.799,4.142v0.037c0,2.545,1.766,4.18,3.799,4.18
	C135.607,172.063,137.544,170.373,137.544,167.902z"/>
<path fill="#1E1E1C" d="M141.149,169.917v-0.037c0-2.014,1.729-3.153,4.236-3.153c1.349,0,2.279,0.172,3.21,0.418v-0.418
	c0-1.957-1.197-2.963-3.191-2.963c-1.178,0-2.146,0.322-3.039,0.778l-0.342-0.817c1.063-0.492,2.108-0.834,3.438-0.834
	c1.311,0,2.355,0.359,3.058,1.063c0.646,0.646,0.988,1.539,0.988,2.736v6.039h-0.911v-1.613c-0.665,0.931-1.861,1.842-3.704,1.842
	C143.086,172.956,141.149,171.932,141.149,169.917z M148.614,169.102v-1.104c-0.817-0.208-1.899-0.438-3.286-0.438
	c-2.052,0-3.191,0.912-3.191,2.26v0.039c0,1.406,1.33,2.224,2.812,2.224C146.923,172.083,148.614,170.867,148.614,169.102z"/>
<path fill="#1E1E1C" d="M153.359,170.24v-6.346h-1.405v-0.854h1.405v-3.098h0.932v3.098h3.399v0.854h-3.399v6.25
	c0,1.387,0.816,1.881,1.937,1.881c0.476,0,0.875-0.096,1.425-0.342v0.873c-0.494,0.229-0.969,0.342-1.578,0.342
	C154.574,172.898,153.359,172.083,153.359,170.24z"/>
<path fill="#1E1E1C" d="M159.644,169.917v-0.037c0-2.014,1.729-3.153,4.235-3.153c1.349,0,2.279,0.172,3.21,0.418v-0.418
	c0-1.957-1.197-2.963-3.191-2.963c-1.178,0-2.146,0.322-3.039,0.778l-0.342-0.817c1.064-0.492,2.108-0.834,3.438-0.834
	c1.311,0,2.355,0.359,3.059,1.063c0.646,0.646,0.988,1.539,0.988,2.736v6.039h-0.912v-1.613c-0.665,0.931-1.861,1.842-3.704,1.842
	C161.582,172.956,159.644,171.932,159.644,169.917z M167.109,169.102v-1.104c-0.817-0.208-1.899-0.438-3.286-0.438
	c-2.052,0-3.191,0.912-3.191,2.26v0.039c0,1.406,1.33,2.224,2.812,2.224C165.418,172.083,167.109,170.867,167.109,169.102z"/>
<path fill="#1E1E1C" d="M171.132,171.113h1.254v1.615h-1.254V171.113z"/>
<path fill="#1E1E1C" d="M181.613,159.432h9.46v0.912H182.6v5.225h7.617v0.91H182.6v5.338h8.566v0.912h-9.554L181.613,159.432
	L181.613,159.432z"/>
<path fill="#1E1E1C" d="M194.127,163.041h0.931v1.729c0.627-1.006,1.501-1.955,3.229-1.955c1.69,0,2.734,0.969,3.268,2.088
	c0.627-1.082,1.672-2.088,3.494-2.088c2.299,0,3.723,1.613,3.723,4.045v5.869h-0.931v-5.756c0-2.089-1.083-3.305-2.866-3.305
	c-1.636,0-3.061,1.253-3.061,3.419v5.642h-0.932v-5.813c0-2.014-1.102-3.248-2.83-3.248s-3.096,1.52-3.096,3.477v5.584h-0.931
	L194.127,163.041L194.127,163.041z"/>
<path fill="#1E1E1C" d="M212.186,163.041h0.932v2.165c0.836-1.272,2.07-2.394,3.988-2.394c2.336,0,4.711,1.881,4.711,5.033v0.038
	c0,3.153-2.375,5.071-4.711,5.071c-1.938,0-3.19-1.102-3.988-2.316v5.129h-0.932V163.041z M220.809,167.923v-0.038
	c0-2.545-1.767-4.179-3.799-4.179c-2.014,0-3.949,1.69-3.949,4.16v0.036c0,2.488,1.937,4.16,3.949,4.16
	C219.118,172.063,220.809,170.523,220.809,167.923z"/>
<path fill="#1E1E1C" d="M224.053,167.923v-0.038c0-2.716,2.108-5.07,4.995-5.07c2.868,0,4.957,2.315,4.957,5.033v0.037
	c0,2.717-2.106,5.071-4.993,5.071C226.143,172.956,224.053,170.639,224.053,167.923z M232.999,167.923v-0.038
	c0-2.337-1.748-4.197-3.987-4.197c-2.3,0-3.951,1.881-3.951,4.16v0.037c0,2.338,1.748,4.198,3.987,4.198
	C231.348,172.083,232.999,170.202,232.999,167.923z"/>
<path fill="#1E1E1C" d="M236.035,163.041h1.044l2.926,8.51l2.925-8.548h0.741l2.925,8.548l2.926-8.51h1.006l-3.551,9.764h-0.799
	l-2.889-8.301l-2.905,8.301h-0.798L236.035,163.041z"/>
<path fill="#1E1E1C" d="M252.555,167.902v-0.036c0-2.812,1.977-5.054,4.598-5.054c2.716,0,4.445,2.203,4.445,5.071
	c0,0.171,0,0.228-0.021,0.38h-8.035c0.17,2.412,1.899,3.818,3.799,3.818c1.503,0,2.526-0.665,3.324-1.52l0.646,0.568
	c-0.988,1.063-2.146,1.823-4.008,1.823C254.758,172.956,252.555,170.924,252.555,167.902z M260.59,167.43
	c-0.133-1.957-1.255-3.762-3.477-3.762c-1.918,0-3.401,1.614-3.571,3.762H260.59z"/>
<path fill="#1E1E1C" d="M264.309,163.041h0.932v2.754c0.761-1.729,2.375-2.98,4.293-2.904v1.024h-0.096
	c-2.24,0-4.197,1.69-4.197,4.844v3.97h-0.932V163.041z"/>
<path fill="#1E1E1C" d="M271.923,159.242h1.158v1.271h-1.158V159.242z M272.036,163.041h0.933v9.688h-0.933V163.041z"/>
<path fill="#1E1E1C" d="M276.632,163.041h0.931v1.805c0.646-1.14,1.729-2.031,3.496-2.031c2.449,0,3.875,1.672,3.875,3.988v5.926
	h-0.931v-5.756c0-1.994-1.123-3.305-3.08-3.305c-1.897,0-3.36,1.443-3.36,3.457v5.604h-0.931V163.041L276.632,163.041z"/>
<path fill="#1E1E1C" d="M288.082,174.322l0.55-0.758c1.16,0.893,2.489,1.367,3.914,1.367c2.224,0,3.798-1.272,3.798-3.762v-1.406
	c-0.835,1.197-2.126,2.242-4.046,2.242c-2.336,0-4.653-1.785-4.653-4.559v-0.039c0-2.792,2.317-4.596,4.653-4.596
	c1.938,0,3.249,1.024,4.046,2.164v-1.938h0.932v8.188c0,1.405-0.455,2.508-1.234,3.285c-0.836,0.836-2.09,1.293-3.514,1.293
	C290.911,175.807,289.411,175.313,288.082,174.322z M296.402,167.43v-0.039c0-2.24-1.995-3.685-4.008-3.685
	c-2.033,0-3.744,1.405-3.744,3.666v0.037c0,2.187,1.748,3.704,3.744,3.704C294.407,171.113,296.402,169.632,296.402,167.43z"/>
<path fill="#1E1E1C" d="M307.014,170.24v-6.346h-1.406v-0.854h1.406v-3.098h0.932v3.098h3.398v0.854h-3.398v6.25
	c0,1.387,0.816,1.881,1.938,1.881c0.475,0,0.872-0.096,1.424-0.342v0.873c-0.494,0.229-0.969,0.342-1.576,0.342
	C308.229,172.898,307.014,172.083,307.014,170.24z"/>
<path fill="#1E1E1C" d="M314.096,158.861h0.932v5.984c0.646-1.141,1.729-2.033,3.494-2.033c2.451,0,3.877,1.672,3.877,3.988v5.928
	h-0.933v-5.756c0-1.996-1.12-3.306-3.077-3.306c-1.9,0-3.361,1.442-3.361,3.457v5.604h-0.932V158.861z"/>
<path fill="#1E1E1C" d="M325.07,167.902v-0.036c0-2.812,1.977-5.054,4.598-5.054c2.717,0,4.445,2.203,4.445,5.071
	c0,0.171,0,0.228-0.02,0.38h-8.035c0.17,2.412,1.898,3.818,3.799,3.818c1.502,0,2.525-0.665,3.324-1.52l0.646,0.568
	c-0.988,1.063-2.146,1.823-4.008,1.823C327.273,172.956,325.07,170.924,325.07,167.902z M333.105,167.43
	c-0.133-1.957-1.254-3.762-3.478-3.762c-1.917,0-3.399,1.614-3.569,3.762H333.105z"/>
<path fill="#1E1E1C" d="M343.091,163.896h-1.405v-0.854h1.405v-0.95c0-1.102,0.304-1.975,0.854-2.525
	c0.494-0.494,1.179-0.76,2.031-0.76c0.59,0,1.008,0.075,1.443,0.229v0.874c-0.55-0.173-0.947-0.247-1.443-0.247
	c-1.328,0-1.957,0.798-1.957,2.449v0.932h3.383v0.854h-3.383v8.834h-0.93L343.091,163.896L343.091,163.896z"/>
<path fill="#1E1E1C" d="M349.206,168.968v-5.927h0.931v5.755c0,1.995,1.12,3.306,3.077,3.306c1.897,0,3.361-1.443,3.361-3.457
	v-5.604h0.93v9.688h-0.93v-1.805c-0.646,1.141-1.728,2.032-3.496,2.032C350.63,172.956,349.206,171.284,349.206,168.968z"/>
<path fill="#1E1E1C" d="M361.55,170.24v-6.346h-1.407v-0.854h1.407v-3.098h0.931v3.098h3.398v0.854h-3.398v6.25
	c0,1.387,0.816,1.881,1.938,1.881c0.475,0,0.873-0.096,1.424-0.342v0.873c-0.492,0.229-0.969,0.342-1.574,0.342
	C362.766,172.898,361.55,172.083,361.55,170.24z"/>
<path fill="#1E1E1C" d="M368.439,168.968v-5.927h0.932v5.755c0,1.995,1.12,3.306,3.076,3.306c1.9,0,3.361-1.443,3.361-3.457v-5.604
	h0.933v9.688h-0.933v-1.805c-0.646,1.141-1.728,2.032-3.494,2.032C369.863,172.956,368.439,171.284,368.439,168.968z"/>
<path fill="#1E1E1C" d="M380.27,163.041h0.932v2.754c0.761-1.729,2.375-2.98,4.295-2.904v1.024H385.4
	c-2.242,0-4.199,1.69-4.199,4.844v3.97h-0.932V163.041z"/>
<path fill="#1E1E1C" d="M387.202,167.902v-0.036c0-2.812,1.976-5.054,4.596-5.054c2.718,0,4.445,2.203,4.445,5.071
	c0,0.171,0,0.228-0.021,0.38h-8.035c0.172,2.412,1.9,3.818,3.801,3.818c1.5,0,2.525-0.665,3.324-1.52l0.646,0.568
	c-0.987,1.063-2.146,1.823-4.008,1.823C389.402,172.956,387.202,170.924,387.202,167.902z M395.236,167.43
	c-0.135-1.957-1.256-3.762-3.479-3.762c-1.916,0-3.398,1.614-3.57,3.762H395.236z"/>
<path fill="#1E1E1C" d="M398.746,171.113H400v1.615h-1.254V171.113z"/>
</svg>
